<mxfile host="Electron" agent="Mozilla/5.0 (Windows NT 10.0; Win64; x64) AppleWebKit/537.36 (KHTML, like Gecko) draw.io/25.0.2 Chrome/128.0.6613.186 Electron/32.2.5 Safari/537.36" version="25.0.2">
  <diagram name="Page-1" id="zoLtREN-FQGRYC9TaAIn">
    <mxGraphModel dx="3475" dy="1553" grid="1" gridSize="10" guides="1" tooltips="1" connect="1" arrows="1" fold="1" page="1" pageScale="1" pageWidth="850" pageHeight="1100" math="0" shadow="0">
      <root>
        <mxCell id="0" />
        <mxCell id="1" parent="0" />
        <mxCell id="n5QaBMFjTIUyxAVZbGBG-1" value="" style="rounded=0;whiteSpace=wrap;html=1;" vertex="1" parent="1">
          <mxGeometry x="85" y="60" width="620" height="2020" as="geometry" />
        </mxCell>
        <mxCell id="n5QaBMFjTIUyxAVZbGBG-2" value="User&lt;div&gt;&lt;br&gt;&lt;/div&gt;" style="shape=umlActor;html=1;verticalLabelPosition=bottom;verticalAlign=top;align=center;" vertex="1" parent="1">
          <mxGeometry x="-130" y="420" width="30" height="60" as="geometry" />
        </mxCell>
        <mxCell id="n5QaBMFjTIUyxAVZbGBG-3" value="System" style="shape=umlActor;html=1;verticalLabelPosition=bottom;verticalAlign=top;align=center;" vertex="1" parent="1">
          <mxGeometry x="880" y="610" width="30" height="60" as="geometry" />
        </mxCell>
        <mxCell id="n5QaBMFjTIUyxAVZbGBG-5" value="Restaurant&lt;div&gt;&amp;nbsp;Owner&lt;/div&gt;" style="shape=umlActor;html=1;verticalLabelPosition=bottom;verticalAlign=top;align=center;" vertex="1" parent="1">
          <mxGeometry x="-220" y="730" width="30" height="60" as="geometry" />
        </mxCell>
        <mxCell id="n5QaBMFjTIUyxAVZbGBG-6" value="" style="edgeStyle=none;html=1;endArrow=block;endFill=0;endSize=12;verticalAlign=bottom;rounded=0;entryX=0.533;entryY=0.693;entryDx=0;entryDy=0;entryPerimeter=0;movable=0;resizable=0;rotatable=0;deletable=0;editable=0;locked=1;connectable=0;" edge="1" parent="1" target="n5QaBMFjTIUyxAVZbGBG-2">
          <mxGeometry width="160" relative="1" as="geometry">
            <mxPoint x="-115" y="600" as="sourcePoint" />
            <mxPoint x="-20" y="560" as="targetPoint" />
          </mxGeometry>
        </mxCell>
        <mxCell id="n5QaBMFjTIUyxAVZbGBG-8" value="" style="edgeStyle=none;html=1;endArrow=none;verticalAlign=bottom;rounded=0;exitX=0.5;exitY=0;exitDx=0;exitDy=0;exitPerimeter=0;entryX=0.5;entryY=0;entryDx=0;entryDy=0;entryPerimeter=0;movable=0;resizable=0;rotatable=0;deletable=0;editable=0;locked=1;connectable=0;" edge="1" parent="1" source="n5QaBMFjTIUyxAVZbGBG-5" target="n5QaBMFjTIUyxAVZbGBG-9">
          <mxGeometry width="160" relative="1" as="geometry">
            <mxPoint x="-210" y="390" as="sourcePoint" />
            <mxPoint x="-10" y="700" as="targetPoint" />
            <Array as="points">
              <mxPoint x="-205" y="600" />
              <mxPoint x="-10" y="600" />
            </Array>
          </mxGeometry>
        </mxCell>
        <mxCell id="n5QaBMFjTIUyxAVZbGBG-9" value="Customer" style="shape=umlActor;html=1;verticalLabelPosition=bottom;verticalAlign=top;align=center;" vertex="1" parent="1">
          <mxGeometry x="-25" y="731" width="30" height="60" as="geometry" />
        </mxCell>
        <mxCell id="n5QaBMFjTIUyxAVZbGBG-11" value="&lt;font face=&quot;Garamond&quot;&gt;Signup&lt;/font&gt;" style="ellipse;whiteSpace=wrap;html=1;" vertex="1" parent="1">
          <mxGeometry x="322" y="124" width="170" height="30" as="geometry" />
        </mxCell>
        <mxCell id="n5QaBMFjTIUyxAVZbGBG-12" value="&lt;font face=&quot;Garamond&quot;&gt;Login&lt;/font&gt;" style="ellipse;whiteSpace=wrap;html=1;" vertex="1" parent="1">
          <mxGeometry x="327" y="176" width="170" height="30" as="geometry" />
        </mxCell>
        <mxCell id="n5QaBMFjTIUyxAVZbGBG-14" value="&lt;font face=&quot;Garamond&quot;&gt;Select Role&lt;/font&gt;" style="ellipse;whiteSpace=wrap;html=1;" vertex="1" parent="1">
          <mxGeometry x="323" y="83" width="170" height="30" as="geometry" />
        </mxCell>
        <mxCell id="n5QaBMFjTIUyxAVZbGBG-15" value="&lt;font face=&quot;Garamond&quot;&gt;View Restaurant&lt;/font&gt;" style="ellipse;whiteSpace=wrap;html=1;" vertex="1" parent="1">
          <mxGeometry x="330" y="234" width="170" height="30" as="geometry" />
        </mxCell>
        <mxCell id="n5QaBMFjTIUyxAVZbGBG-16" value="&lt;font face=&quot;Garamond&quot;&gt;Sort Food Depend On Food Type&lt;/font&gt;" style="ellipse;whiteSpace=wrap;html=1;" vertex="1" parent="1">
          <mxGeometry x="321" y="303" width="205" height="30" as="geometry" />
        </mxCell>
        <mxCell id="n5QaBMFjTIUyxAVZbGBG-17" value="&lt;font face=&quot;Garamond&quot;&gt;Sort Food Depend On Category&lt;/font&gt;" style="ellipse;whiteSpace=wrap;html=1;" vertex="1" parent="1">
          <mxGeometry x="322" y="359" width="205" height="30" as="geometry" />
        </mxCell>
        <mxCell id="n5QaBMFjTIUyxAVZbGBG-18" value="&lt;font face=&quot;Garamond&quot;&gt;View Food Details&lt;/font&gt;" style="ellipse;whiteSpace=wrap;html=1;" vertex="1" parent="1">
          <mxGeometry x="330" y="410" width="205" height="30" as="geometry" />
        </mxCell>
        <mxCell id="n5QaBMFjTIUyxAVZbGBG-20" value="&lt;font face=&quot;Garamond&quot;&gt;Select Ingredients&lt;/font&gt;" style="ellipse;whiteSpace=wrap;html=1;" vertex="1" parent="1">
          <mxGeometry x="327" y="560" width="205" height="30" as="geometry" />
        </mxCell>
        <mxCell id="n5QaBMFjTIUyxAVZbGBG-21" value="&lt;font face=&quot;Garamond&quot;&gt;Add To Cart&lt;/font&gt;" style="ellipse;whiteSpace=wrap;html=1;" vertex="1" parent="1">
          <mxGeometry x="328" y="490" width="205" height="30" as="geometry" />
        </mxCell>
        <mxCell id="n5QaBMFjTIUyxAVZbGBG-25" value="&amp;lt;&amp;lt;extend&amp;gt;&amp;gt;" style="edgeStyle=none;html=1;startArrow=open;endArrow=none;startSize=12;verticalAlign=bottom;dashed=1;labelBackgroundColor=none;rounded=0;entryX=0.5;entryY=1;entryDx=0;entryDy=0;exitX=0.5;exitY=0;exitDx=0;exitDy=0;" edge="1" parent="1" source="n5QaBMFjTIUyxAVZbGBG-21" target="n5QaBMFjTIUyxAVZbGBG-18">
          <mxGeometry x="-0.25" y="31" width="160" relative="1" as="geometry">
            <mxPoint x="380" y="500" as="sourcePoint" />
            <mxPoint x="540" y="500" as="targetPoint" />
            <mxPoint as="offset" />
          </mxGeometry>
        </mxCell>
        <mxCell id="n5QaBMFjTIUyxAVZbGBG-27" value="&amp;lt;&amp;lt;extend&amp;gt;&amp;gt;" style="edgeStyle=none;html=1;startArrow=open;endArrow=none;startSize=12;verticalAlign=bottom;dashed=1;labelBackgroundColor=none;rounded=0;exitX=0.5;exitY=1;exitDx=0;exitDy=0;" edge="1" parent="1" source="n5QaBMFjTIUyxAVZbGBG-21" target="n5QaBMFjTIUyxAVZbGBG-20">
          <mxGeometry x="0.5298" y="-30" width="160" relative="1" as="geometry">
            <mxPoint x="441" y="500" as="sourcePoint" />
            <mxPoint x="443" y="450" as="targetPoint" />
            <mxPoint as="offset" />
          </mxGeometry>
        </mxCell>
        <mxCell id="n5QaBMFjTIUyxAVZbGBG-28" value="&lt;font face=&quot;Garamond&quot;&gt;View Cart&lt;/font&gt;" style="ellipse;whiteSpace=wrap;html=1;" vertex="1" parent="1">
          <mxGeometry x="330" y="610" width="205" height="30" as="geometry" />
        </mxCell>
        <mxCell id="n5QaBMFjTIUyxAVZbGBG-29" value="&lt;font face=&quot;Garamond&quot;&gt;Increase Quantity&amp;nbsp;&lt;/font&gt;" style="ellipse;whiteSpace=wrap;html=1;" vertex="1" parent="1">
          <mxGeometry x="125" y="680" width="205" height="30" as="geometry" />
        </mxCell>
        <mxCell id="n5QaBMFjTIUyxAVZbGBG-31" value="&lt;font face=&quot;Garamond&quot;&gt;Decrease Quantity&amp;nbsp;&lt;/font&gt;" style="ellipse;whiteSpace=wrap;html=1;" vertex="1" parent="1">
          <mxGeometry x="500" y="680" width="205" height="30" as="geometry" />
        </mxCell>
        <mxCell id="n5QaBMFjTIUyxAVZbGBG-32" value="&amp;lt;&amp;lt;extend&amp;gt;&amp;gt;" style="edgeStyle=none;html=1;startArrow=open;endArrow=none;startSize=12;verticalAlign=bottom;dashed=1;labelBackgroundColor=none;rounded=0;fontFamily=Helvetica;fontSize=12;fontColor=default;entryX=0.54;entryY=0.089;entryDx=0;entryDy=0;entryPerimeter=0;exitX=0;exitY=1;exitDx=0;exitDy=0;" edge="1" parent="1" source="n5QaBMFjTIUyxAVZbGBG-28" target="n5QaBMFjTIUyxAVZbGBG-29">
          <mxGeometry x="0.1131" y="-2" width="160" relative="1" as="geometry">
            <mxPoint x="290" y="650" as="sourcePoint" />
            <mxPoint x="450" y="650" as="targetPoint" />
            <mxPoint as="offset" />
          </mxGeometry>
        </mxCell>
        <mxCell id="n5QaBMFjTIUyxAVZbGBG-33" value="&amp;lt;&amp;lt;extend&amp;gt;&amp;gt;" style="edgeStyle=none;html=1;startArrow=open;endArrow=none;startSize=12;verticalAlign=bottom;dashed=1;labelBackgroundColor=none;rounded=0;fontFamily=Helvetica;fontSize=12;fontColor=default;exitX=0.5;exitY=1;exitDx=0;exitDy=0;" edge="1" parent="1" source="n5QaBMFjTIUyxAVZbGBG-28" target="n5QaBMFjTIUyxAVZbGBG-31">
          <mxGeometry x="0.5197" y="1" width="160" relative="1" as="geometry">
            <mxPoint x="370" y="646" as="sourcePoint" />
            <mxPoint x="246" y="693" as="targetPoint" />
            <mxPoint y="-1" as="offset" />
          </mxGeometry>
        </mxCell>
        <mxCell id="n5QaBMFjTIUyxAVZbGBG-34" value="&lt;font face=&quot;Garamond&quot;&gt;Make Payment&lt;/font&gt;" style="ellipse;whiteSpace=wrap;html=1;" vertex="1" parent="1">
          <mxGeometry x="330" y="731" width="205" height="30" as="geometry" />
        </mxCell>
        <mxCell id="n5QaBMFjTIUyxAVZbGBG-36" value="&lt;font face=&quot;Garamond&quot;&gt;Set Delivery Address&lt;/font&gt;" style="ellipse;whiteSpace=wrap;html=1;" vertex="1" parent="1">
          <mxGeometry x="340" y="810" width="205" height="30" as="geometry" />
        </mxCell>
        <mxCell id="n5QaBMFjTIUyxAVZbGBG-37" value="&amp;lt;&amp;lt;include&amp;gt;&amp;gt;" style="edgeStyle=none;html=1;endArrow=open;verticalAlign=bottom;dashed=1;labelBackgroundColor=none;rounded=0;fontFamily=Helvetica;fontSize=12;fontColor=default;entryX=0.5;entryY=1;entryDx=0;entryDy=0;" edge="1" parent="1" source="n5QaBMFjTIUyxAVZbGBG-36" target="n5QaBMFjTIUyxAVZbGBG-34">
          <mxGeometry x="-0.4116" y="28" width="160" relative="1" as="geometry">
            <mxPoint x="290" y="770" as="sourcePoint" />
            <mxPoint x="450" y="770" as="targetPoint" />
            <mxPoint as="offset" />
          </mxGeometry>
        </mxCell>
        <mxCell id="n5QaBMFjTIUyxAVZbGBG-38" value="&lt;font face=&quot;Garamond&quot;&gt;Show Message&lt;/font&gt;" style="ellipse;whiteSpace=wrap;html=1;" vertex="1" parent="1">
          <mxGeometry x="570" y="790" width="150" height="30" as="geometry" />
        </mxCell>
        <mxCell id="n5QaBMFjTIUyxAVZbGBG-39" value="&amp;lt;&amp;lt;include&amp;gt;&amp;gt;" style="edgeStyle=none;html=1;endArrow=open;verticalAlign=bottom;dashed=1;labelBackgroundColor=none;rounded=0;fontFamily=Helvetica;fontSize=12;fontColor=default;entryX=0.5;entryY=0;entryDx=0;entryDy=0;exitX=1;exitY=1;exitDx=0;exitDy=0;" edge="1" parent="1" source="n5QaBMFjTIUyxAVZbGBG-34" target="n5QaBMFjTIUyxAVZbGBG-38">
          <mxGeometry x="0.0549" y="4" width="160" relative="1" as="geometry">
            <mxPoint x="450" y="820" as="sourcePoint" />
            <mxPoint x="443" y="771" as="targetPoint" />
            <mxPoint as="offset" />
          </mxGeometry>
        </mxCell>
        <mxCell id="n5QaBMFjTIUyxAVZbGBG-41" value="" style="endArrow=none;html=1;rounded=0;fontFamily=Helvetica;fontSize=12;fontColor=default;entryX=0.445;entryY=-0.007;entryDx=0;entryDy=0;exitX=0.5;exitY=0;exitDx=0;exitDy=0;entryPerimeter=0;" edge="1" parent="1" source="n5QaBMFjTIUyxAVZbGBG-45" target="n5QaBMFjTIUyxAVZbGBG-44">
          <mxGeometry width="50" height="50" relative="1" as="geometry">
            <mxPoint x="526" y="860" as="sourcePoint" />
            <mxPoint x="671" y="850" as="targetPoint" />
            <Array as="points">
              <mxPoint x="530" y="850" />
              <mxPoint x="670" y="850" />
            </Array>
          </mxGeometry>
        </mxCell>
        <mxCell id="n5QaBMFjTIUyxAVZbGBG-42" value="" style="edgeStyle=none;html=1;endArrow=block;endFill=0;endSize=12;verticalAlign=bottom;rounded=0;fontFamily=Helvetica;fontSize=12;fontColor=default;entryX=0.181;entryY=0.867;entryDx=0;entryDy=0;entryPerimeter=0;" edge="1" parent="1" target="n5QaBMFjTIUyxAVZbGBG-38">
          <mxGeometry width="160" relative="1" as="geometry">
            <mxPoint x="597" y="850" as="sourcePoint" />
            <mxPoint x="740" y="820" as="targetPoint" />
          </mxGeometry>
        </mxCell>
        <mxCell id="n5QaBMFjTIUyxAVZbGBG-44" value="&lt;font face=&quot;Garamond&quot;&gt;Failure Message&lt;/font&gt;" style="ellipse;whiteSpace=wrap;html=1;" vertex="1" parent="1">
          <mxGeometry x="630" y="860" width="90" height="30" as="geometry" />
        </mxCell>
        <mxCell id="n5QaBMFjTIUyxAVZbGBG-45" value="&lt;font face=&quot;Garamond&quot;&gt;Success Message&lt;/font&gt;" style="ellipse;whiteSpace=wrap;html=1;" vertex="1" parent="1">
          <mxGeometry x="470" y="868" width="120" height="30" as="geometry" />
        </mxCell>
        <mxCell id="n5QaBMFjTIUyxAVZbGBG-46" value="&amp;lt;&amp;lt;extend&amp;gt;&amp;gt;" style="edgeStyle=none;html=1;startArrow=open;endArrow=none;startSize=12;verticalAlign=bottom;dashed=1;labelBackgroundColor=none;rounded=0;fontFamily=Helvetica;fontSize=12;fontColor=default;entryX=0.427;entryY=1.059;entryDx=0;entryDy=0;entryPerimeter=0;" edge="1" parent="1" source="n5QaBMFjTIUyxAVZbGBG-34" target="n5QaBMFjTIUyxAVZbGBG-28">
          <mxGeometry x="-0.2234" y="26" width="160" relative="1" as="geometry">
            <mxPoint x="300" y="760" as="sourcePoint" />
            <mxPoint x="460" y="760" as="targetPoint" />
            <mxPoint as="offset" />
          </mxGeometry>
        </mxCell>
        <mxCell id="n5QaBMFjTIUyxAVZbGBG-47" value="&lt;font face=&quot;Garamond&quot;&gt;View My Profile&lt;/font&gt;" style="ellipse;whiteSpace=wrap;html=1;" vertex="1" parent="1">
          <mxGeometry x="340" y="930" width="205" height="30" as="geometry" />
        </mxCell>
        <mxCell id="n5QaBMFjTIUyxAVZbGBG-48" value="&lt;font face=&quot;Garamond&quot;&gt;View Orders&lt;/font&gt;" style="ellipse;whiteSpace=wrap;html=1;" vertex="1" parent="1">
          <mxGeometry x="340" y="980" width="205" height="30" as="geometry" />
        </mxCell>
        <mxCell id="n5QaBMFjTIUyxAVZbGBG-49" value="&lt;font face=&quot;Garamond&quot;&gt;View Favorites&lt;/font&gt;" style="ellipse;whiteSpace=wrap;html=1;" vertex="1" parent="1">
          <mxGeometry x="340" y="1030" width="205" height="30" as="geometry" />
        </mxCell>
        <mxCell id="n5QaBMFjTIUyxAVZbGBG-50" value="&lt;font face=&quot;Garamond&quot;&gt;Add To Favorites&lt;/font&gt;" style="ellipse;whiteSpace=wrap;html=1;" vertex="1" parent="1">
          <mxGeometry x="340" y="1080" width="205" height="30" as="geometry" />
        </mxCell>
        <mxCell id="n5QaBMFjTIUyxAVZbGBG-51" value="&lt;font face=&quot;Garamond&quot;&gt;View Payment History&lt;/font&gt;" style="ellipse;whiteSpace=wrap;html=1;" vertex="1" parent="1">
          <mxGeometry x="342" y="1184" width="205" height="30" as="geometry" />
        </mxCell>
        <mxCell id="n5QaBMFjTIUyxAVZbGBG-52" value="&lt;font face=&quot;Garamond&quot;&gt;View&amp;nbsp; Notification&lt;/font&gt;" style="ellipse;whiteSpace=wrap;html=1;" vertex="1" parent="1">
          <mxGeometry x="352" y="1234" width="205" height="30" as="geometry" />
        </mxCell>
        <mxCell id="n5QaBMFjTIUyxAVZbGBG-54" value="&lt;font face=&quot;Garamond&quot;&gt;Remove To Favorites&lt;/font&gt;" style="ellipse;whiteSpace=wrap;html=1;" vertex="1" parent="1">
          <mxGeometry x="352" y="1130" width="205" height="30" as="geometry" />
        </mxCell>
        <mxCell id="n5QaBMFjTIUyxAVZbGBG-55" value="&lt;font face=&quot;Garamond&quot;&gt;View&amp;nbsp; Dashboard&lt;/font&gt;" style="ellipse;whiteSpace=wrap;html=1;" vertex="1" parent="1">
          <mxGeometry x="352" y="1383" width="205" height="30" as="geometry" />
        </mxCell>
        <mxCell id="n5QaBMFjTIUyxAVZbGBG-56" value="&lt;font face=&quot;Garamond&quot;&gt;View&amp;nbsp; Orders&lt;/font&gt;" style="ellipse;whiteSpace=wrap;html=1;" vertex="1" parent="1">
          <mxGeometry x="357" y="1433" width="205" height="30" as="geometry" />
        </mxCell>
        <mxCell id="n5QaBMFjTIUyxAVZbGBG-57" value="&lt;font face=&quot;Garamond&quot;&gt;Update Order Status&lt;/font&gt;" style="ellipse;whiteSpace=wrap;html=1;" vertex="1" parent="1">
          <mxGeometry x="365" y="1497" width="205" height="30" as="geometry" />
        </mxCell>
        <mxCell id="n5QaBMFjTIUyxAVZbGBG-59" value="&lt;font face=&quot;Garamond&quot;&gt;View Menu&lt;/font&gt;" style="ellipse;whiteSpace=wrap;html=1;" vertex="1" parent="1">
          <mxGeometry x="365" y="1543" width="205" height="30" as="geometry" />
        </mxCell>
        <mxCell id="n5QaBMFjTIUyxAVZbGBG-61" value="&lt;font face=&quot;Garamond&quot;&gt;Create New Menu&lt;/font&gt;" style="ellipse;whiteSpace=wrap;html=1;" vertex="1" parent="1">
          <mxGeometry x="365" y="1593" width="205" height="30" as="geometry" />
        </mxCell>
        <mxCell id="n5QaBMFjTIUyxAVZbGBG-64" value="&lt;font face=&quot;Garamond&quot;&gt;View Food Category&lt;/font&gt;" style="ellipse;whiteSpace=wrap;html=1;" vertex="1" parent="1">
          <mxGeometry x="375" y="1653" width="205" height="30" as="geometry" />
        </mxCell>
        <mxCell id="n5QaBMFjTIUyxAVZbGBG-65" value="&lt;font face=&quot;Garamond&quot;&gt;Create New Category&lt;/font&gt;" style="ellipse;whiteSpace=wrap;html=1;" vertex="1" parent="1">
          <mxGeometry x="385" y="1703" width="205" height="30" as="geometry" />
        </mxCell>
        <mxCell id="n5QaBMFjTIUyxAVZbGBG-66" value="&lt;font face=&quot;Garamond&quot;&gt;View Ingredientes and&amp;nbsp;&lt;/font&gt;&lt;div&gt;&lt;font face=&quot;Garamond&quot;&gt;Ingredients Category&lt;/font&gt;&lt;/div&gt;" style="ellipse;whiteSpace=wrap;html=1;" vertex="1" parent="1">
          <mxGeometry x="380" y="1753" width="210" height="35" as="geometry" />
        </mxCell>
        <mxCell id="n5QaBMFjTIUyxAVZbGBG-67" value="&lt;font face=&quot;Garamond&quot;&gt;Create Ingredientes&lt;/font&gt;" style="ellipse;whiteSpace=wrap;html=1;" vertex="1" parent="1">
          <mxGeometry x="380" y="1803" width="205" height="30" as="geometry" />
        </mxCell>
        <mxCell id="n5QaBMFjTIUyxAVZbGBG-68" value="&lt;font face=&quot;Garamond&quot;&gt;Create Ingredientes Category&lt;/font&gt;" style="ellipse;whiteSpace=wrap;html=1;" vertex="1" parent="1">
          <mxGeometry x="382.5" y="1853" width="205" height="30" as="geometry" />
        </mxCell>
        <mxCell id="n5QaBMFjTIUyxAVZbGBG-69" value="&lt;font face=&quot;Garamond&quot;&gt;View Restaurant Details&lt;/font&gt;" style="ellipse;whiteSpace=wrap;html=1;" vertex="1" parent="1">
          <mxGeometry x="382.5" y="1903" width="205" height="30" as="geometry" />
        </mxCell>
        <mxCell id="n5QaBMFjTIUyxAVZbGBG-70" value="&lt;font face=&quot;Garamond&quot;&gt;Update Restaurant Open Status&lt;/font&gt;" style="ellipse;whiteSpace=wrap;html=1;" vertex="1" parent="1">
          <mxGeometry x="385" y="1953" width="205" height="30" as="geometry" />
        </mxCell>
        <mxCell id="n5QaBMFjTIUyxAVZbGBG-71" value="&lt;font face=&quot;Garamond&quot;&gt;Logout&lt;/font&gt;" style="ellipse;whiteSpace=wrap;html=1;" vertex="1" parent="1">
          <mxGeometry x="385" y="2003" width="205" height="30" as="geometry" />
        </mxCell>
        <mxCell id="n5QaBMFjTIUyxAVZbGBG-72" value="&lt;font face=&quot;Garamond&quot;&gt;Create Restaurant&lt;/font&gt;" style="ellipse;whiteSpace=wrap;html=1;" vertex="1" parent="1">
          <mxGeometry x="352" y="1340" width="205" height="30" as="geometry" />
        </mxCell>
        <mxCell id="n5QaBMFjTIUyxAVZbGBG-73" value="&lt;font face=&quot;Garamond&quot;&gt;Filer Orders&lt;/font&gt;" style="ellipse;whiteSpace=wrap;html=1;" vertex="1" parent="1">
          <mxGeometry x="542" y="1470" width="148" height="27" as="geometry" />
        </mxCell>
        <mxCell id="n5QaBMFjTIUyxAVZbGBG-74" value="&amp;lt;&amp;lt;extend&amp;gt;&amp;gt;" style="edgeStyle=none;html=1;startArrow=open;endArrow=none;startSize=12;verticalAlign=bottom;dashed=1;labelBackgroundColor=none;rounded=0;fontFamily=Helvetica;fontSize=12;fontColor=default;exitX=0.776;exitY=0.82;exitDx=0;exitDy=0;exitPerimeter=0;entryX=0.463;entryY=0.074;entryDx=0;entryDy=0;entryPerimeter=0;" edge="1" parent="1">
          <mxGeometry x="0.5899" width="160" relative="1" as="geometry">
            <mxPoint x="516.0799999999999" y="1458.6" as="sourcePoint" />
            <mxPoint x="621.636" y="1472.998" as="targetPoint" />
            <mxPoint as="offset" />
          </mxGeometry>
        </mxCell>
        <mxCell id="n5QaBMFjTIUyxAVZbGBG-76" value="" style="endArrow=none;html=1;rounded=0;fontFamily=Helvetica;fontSize=12;fontColor=default;exitX=0.75;exitY=0.1;exitDx=0;exitDy=0;exitPerimeter=0;entryX=0;entryY=0.5;entryDx=0;entryDy=0;" edge="1" parent="1" source="n5QaBMFjTIUyxAVZbGBG-2" target="n5QaBMFjTIUyxAVZbGBG-14">
          <mxGeometry width="50" height="50" relative="1" as="geometry">
            <mxPoint x="250" y="410" as="sourcePoint" />
            <mxPoint x="300" y="360" as="targetPoint" />
          </mxGeometry>
        </mxCell>
        <mxCell id="n5QaBMFjTIUyxAVZbGBG-77" value="" style="endArrow=none;html=1;rounded=0;fontFamily=Helvetica;fontSize=12;fontColor=default;exitX=0.75;exitY=0.1;exitDx=0;exitDy=0;exitPerimeter=0;entryX=0;entryY=0.5;entryDx=0;entryDy=0;" edge="1" parent="1" source="n5QaBMFjTIUyxAVZbGBG-2" target="n5QaBMFjTIUyxAVZbGBG-11">
          <mxGeometry width="50" height="50" relative="1" as="geometry">
            <mxPoint x="-97" y="436" as="sourcePoint" />
            <mxPoint x="333" y="108" as="targetPoint" />
          </mxGeometry>
        </mxCell>
        <mxCell id="n5QaBMFjTIUyxAVZbGBG-78" value="" style="endArrow=none;html=1;rounded=0;fontFamily=Helvetica;fontSize=12;fontColor=default;exitX=0.75;exitY=0.1;exitDx=0;exitDy=0;exitPerimeter=0;entryX=0;entryY=0.5;entryDx=0;entryDy=0;" edge="1" parent="1" source="n5QaBMFjTIUyxAVZbGBG-2" target="n5QaBMFjTIUyxAVZbGBG-12">
          <mxGeometry width="50" height="50" relative="1" as="geometry">
            <mxPoint x="-97" y="436" as="sourcePoint" />
            <mxPoint x="332" y="149" as="targetPoint" />
          </mxGeometry>
        </mxCell>
        <mxCell id="n5QaBMFjTIUyxAVZbGBG-79" value="" style="endArrow=none;html=1;rounded=0;fontFamily=Helvetica;fontSize=12;fontColor=default;entryX=0;entryY=0.5;entryDx=0;entryDy=0;exitX=0.75;exitY=0.1;exitDx=0;exitDy=0;exitPerimeter=0;" edge="1" parent="1" source="n5QaBMFjTIUyxAVZbGBG-9" target="n5QaBMFjTIUyxAVZbGBG-15">
          <mxGeometry width="50" height="50" relative="1" as="geometry">
            <mxPoint x="350" y="600" as="sourcePoint" />
            <mxPoint x="400" y="550" as="targetPoint" />
          </mxGeometry>
        </mxCell>
        <mxCell id="n5QaBMFjTIUyxAVZbGBG-80" value="" style="endArrow=none;html=1;rounded=0;fontFamily=Helvetica;fontSize=12;fontColor=default;entryX=0;entryY=0.5;entryDx=0;entryDy=0;exitX=0.75;exitY=0.1;exitDx=0;exitDy=0;exitPerimeter=0;" edge="1" parent="1" source="n5QaBMFjTIUyxAVZbGBG-9" target="n5QaBMFjTIUyxAVZbGBG-16">
          <mxGeometry width="50" height="50" relative="1" as="geometry">
            <mxPoint x="8" y="747" as="sourcePoint" />
            <mxPoint x="340" y="259" as="targetPoint" />
          </mxGeometry>
        </mxCell>
        <mxCell id="n5QaBMFjTIUyxAVZbGBG-81" value="" style="endArrow=none;html=1;rounded=0;fontFamily=Helvetica;fontSize=12;fontColor=default;entryX=0;entryY=0.5;entryDx=0;entryDy=0;exitX=0.75;exitY=0.1;exitDx=0;exitDy=0;exitPerimeter=0;" edge="1" parent="1" source="n5QaBMFjTIUyxAVZbGBG-9" target="n5QaBMFjTIUyxAVZbGBG-17">
          <mxGeometry width="50" height="50" relative="1" as="geometry">
            <mxPoint x="8" y="747" as="sourcePoint" />
            <mxPoint x="331" y="328" as="targetPoint" />
          </mxGeometry>
        </mxCell>
        <mxCell id="n5QaBMFjTIUyxAVZbGBG-82" value="" style="endArrow=none;html=1;rounded=0;fontFamily=Helvetica;fontSize=12;fontColor=default;entryX=0;entryY=0.5;entryDx=0;entryDy=0;exitX=0.75;exitY=0.1;exitDx=0;exitDy=0;exitPerimeter=0;" edge="1" parent="1" source="n5QaBMFjTIUyxAVZbGBG-9" target="n5QaBMFjTIUyxAVZbGBG-18">
          <mxGeometry width="50" height="50" relative="1" as="geometry">
            <mxPoint x="8" y="747" as="sourcePoint" />
            <mxPoint x="332" y="384" as="targetPoint" />
          </mxGeometry>
        </mxCell>
        <mxCell id="n5QaBMFjTIUyxAVZbGBG-84" value="" style="endArrow=none;html=1;rounded=0;fontFamily=Helvetica;fontSize=12;fontColor=default;entryX=0;entryY=0.5;entryDx=0;entryDy=0;exitX=0.75;exitY=0.1;exitDx=0;exitDy=0;exitPerimeter=0;" edge="1" parent="1" source="n5QaBMFjTIUyxAVZbGBG-9" target="n5QaBMFjTIUyxAVZbGBG-28">
          <mxGeometry width="50" height="50" relative="1" as="geometry">
            <mxPoint x="8" y="747" as="sourcePoint" />
            <mxPoint x="338" y="515" as="targetPoint" />
          </mxGeometry>
        </mxCell>
        <mxCell id="n5QaBMFjTIUyxAVZbGBG-85" value="" style="endArrow=none;html=1;rounded=0;fontFamily=Helvetica;fontSize=12;fontColor=default;entryX=0.25;entryY=0.1;entryDx=0;entryDy=0;exitX=1;exitY=0;exitDx=0;exitDy=0;entryPerimeter=0;" edge="1" parent="1" source="n5QaBMFjTIUyxAVZbGBG-97" target="n5QaBMFjTIUyxAVZbGBG-3">
          <mxGeometry width="50" height="50" relative="1" as="geometry">
            <mxPoint x="8" y="747" as="sourcePoint" />
            <mxPoint x="340" y="635" as="targetPoint" />
          </mxGeometry>
        </mxCell>
        <mxCell id="n5QaBMFjTIUyxAVZbGBG-93" value="&lt;font face=&quot;Garamond&quot;&gt;Subtract System Tax&lt;/font&gt;" style="ellipse;whiteSpace=wrap;html=1;" vertex="1" parent="1">
          <mxGeometry x="190" y="800" width="150" height="30" as="geometry" />
        </mxCell>
        <mxCell id="n5QaBMFjTIUyxAVZbGBG-94" value="" style="edgeStyle=none;html=1;endArrow=block;endFill=0;endSize=12;verticalAlign=bottom;rounded=0;fontFamily=Helvetica;fontSize=12;fontColor=default;entryX=0.181;entryY=0.867;entryDx=0;entryDy=0;entryPerimeter=0;" edge="1" target="n5QaBMFjTIUyxAVZbGBG-93" parent="1">
          <mxGeometry width="160" relative="1" as="geometry">
            <mxPoint x="217" y="860" as="sourcePoint" />
            <mxPoint x="360" y="830" as="targetPoint" />
          </mxGeometry>
        </mxCell>
        <mxCell id="n5QaBMFjTIUyxAVZbGBG-95" value="" style="endArrow=none;html=1;rounded=0;fontFamily=Helvetica;fontSize=12;fontColor=default;entryX=0.445;entryY=-0.007;entryDx=0;entryDy=0;entryPerimeter=0;" edge="1" parent="1">
          <mxGeometry width="50" height="50" relative="1" as="geometry">
            <mxPoint x="170" y="880" as="sourcePoint" />
            <mxPoint x="289.04999999999995" y="869.79" as="targetPoint" />
            <Array as="points">
              <mxPoint x="170" y="860" />
              <mxPoint x="289" y="860" />
            </Array>
          </mxGeometry>
        </mxCell>
        <mxCell id="n5QaBMFjTIUyxAVZbGBG-96" value="&lt;font face=&quot;Garamond&quot;&gt;Remaining Money&lt;/font&gt;" style="ellipse;whiteSpace=wrap;html=1;" vertex="1" parent="1">
          <mxGeometry x="110" y="880" width="120" height="30" as="geometry" />
        </mxCell>
        <mxCell id="n5QaBMFjTIUyxAVZbGBG-97" value="&lt;span style=&quot;font-family: Garamond;&quot;&gt;System Tax&lt;/span&gt;" style="ellipse;whiteSpace=wrap;html=1;" vertex="1" parent="1">
          <mxGeometry x="250" y="870" width="90" height="30" as="geometry" />
        </mxCell>
        <mxCell id="n5QaBMFjTIUyxAVZbGBG-98" value="&amp;lt;&amp;lt;include&amp;gt;&amp;gt;" style="edgeStyle=none;html=1;endArrow=open;verticalAlign=bottom;dashed=1;labelBackgroundColor=none;rounded=0;fontFamily=Helvetica;fontSize=12;fontColor=default;entryX=0.5;entryY=0;entryDx=0;entryDy=0;exitX=0;exitY=0.5;exitDx=0;exitDy=0;" edge="1" parent="1" source="n5QaBMFjTIUyxAVZbGBG-34">
          <mxGeometry x="0.0549" y="4" width="160" relative="1" as="geometry">
            <mxPoint x="322" y="748.0769230769231" as="sourcePoint" />
            <mxPoint x="272" y="800" as="targetPoint" />
            <mxPoint as="offset" />
          </mxGeometry>
        </mxCell>
        <mxCell id="n5QaBMFjTIUyxAVZbGBG-171" value="" style="endArrow=none;html=1;rounded=0;fontFamily=Helvetica;fontSize=12;fontColor=default;entryX=0;entryY=0.5;entryDx=0;entryDy=0;exitX=0.7;exitY=0.003;exitDx=0;exitDy=0;exitPerimeter=0;" edge="1" parent="1" source="n5QaBMFjTIUyxAVZbGBG-5" target="n5QaBMFjTIUyxAVZbGBG-96">
          <mxGeometry width="50" height="50" relative="1" as="geometry">
            <mxPoint x="8" y="747" as="sourcePoint" />
            <mxPoint x="340" y="635" as="targetPoint" />
          </mxGeometry>
        </mxCell>
        <mxCell id="n5QaBMFjTIUyxAVZbGBG-172" value="" style="endArrow=none;html=1;rounded=0;fontFamily=Helvetica;fontSize=12;fontColor=default;entryX=0;entryY=0.5;entryDx=0;entryDy=0;exitX=0.75;exitY=0.1;exitDx=0;exitDy=0;exitPerimeter=0;" edge="1" parent="1" source="n5QaBMFjTIUyxAVZbGBG-9" target="n5QaBMFjTIUyxAVZbGBG-47">
          <mxGeometry width="50" height="50" relative="1" as="geometry">
            <mxPoint x="8" y="747" as="sourcePoint" />
            <mxPoint x="340" y="635" as="targetPoint" />
          </mxGeometry>
        </mxCell>
        <mxCell id="n5QaBMFjTIUyxAVZbGBG-173" value="" style="endArrow=none;html=1;rounded=0;fontFamily=Helvetica;fontSize=12;fontColor=default;exitX=0.75;exitY=0.1;exitDx=0;exitDy=0;exitPerimeter=0;entryX=0;entryY=0.5;entryDx=0;entryDy=0;" edge="1" parent="1" source="n5QaBMFjTIUyxAVZbGBG-9" target="n5QaBMFjTIUyxAVZbGBG-48">
          <mxGeometry width="50" height="50" relative="1" as="geometry">
            <mxPoint x="8" y="747" as="sourcePoint" />
            <mxPoint x="350" y="955" as="targetPoint" />
          </mxGeometry>
        </mxCell>
        <mxCell id="n5QaBMFjTIUyxAVZbGBG-174" value="" style="endArrow=none;html=1;rounded=0;fontFamily=Helvetica;fontSize=12;fontColor=default;exitX=0.75;exitY=0.1;exitDx=0;exitDy=0;exitPerimeter=0;entryX=0;entryY=0.5;entryDx=0;entryDy=0;" edge="1" parent="1" source="n5QaBMFjTIUyxAVZbGBG-9" target="n5QaBMFjTIUyxAVZbGBG-49">
          <mxGeometry width="50" height="50" relative="1" as="geometry">
            <mxPoint x="8" y="747" as="sourcePoint" />
            <mxPoint x="350" y="1005" as="targetPoint" />
          </mxGeometry>
        </mxCell>
        <mxCell id="n5QaBMFjTIUyxAVZbGBG-175" value="" style="endArrow=none;html=1;rounded=0;fontFamily=Helvetica;fontSize=12;fontColor=default;exitX=0.75;exitY=0.1;exitDx=0;exitDy=0;exitPerimeter=0;entryX=0;entryY=0.5;entryDx=0;entryDy=0;" edge="1" parent="1" source="n5QaBMFjTIUyxAVZbGBG-9" target="n5QaBMFjTIUyxAVZbGBG-50">
          <mxGeometry width="50" height="50" relative="1" as="geometry">
            <mxPoint x="8" y="747" as="sourcePoint" />
            <mxPoint x="350" y="1055" as="targetPoint" />
          </mxGeometry>
        </mxCell>
        <mxCell id="n5QaBMFjTIUyxAVZbGBG-177" value="" style="endArrow=none;html=1;rounded=0;fontFamily=Helvetica;fontSize=12;fontColor=default;exitX=0.75;exitY=0.1;exitDx=0;exitDy=0;exitPerimeter=0;entryX=0;entryY=0.5;entryDx=0;entryDy=0;" edge="1" parent="1" source="n5QaBMFjTIUyxAVZbGBG-9" target="n5QaBMFjTIUyxAVZbGBG-54">
          <mxGeometry width="50" height="50" relative="1" as="geometry">
            <mxPoint x="8" y="747" as="sourcePoint" />
            <mxPoint x="350" y="1105" as="targetPoint" />
          </mxGeometry>
        </mxCell>
        <mxCell id="n5QaBMFjTIUyxAVZbGBG-178" value="" style="endArrow=none;html=1;rounded=0;fontFamily=Helvetica;fontSize=12;fontColor=default;exitX=0.75;exitY=0.1;exitDx=0;exitDy=0;exitPerimeter=0;entryX=0;entryY=0.5;entryDx=0;entryDy=0;" edge="1" parent="1" source="n5QaBMFjTIUyxAVZbGBG-9" target="n5QaBMFjTIUyxAVZbGBG-51">
          <mxGeometry width="50" height="50" relative="1" as="geometry">
            <mxPoint x="8" y="747" as="sourcePoint" />
            <mxPoint x="362" y="1155" as="targetPoint" />
          </mxGeometry>
        </mxCell>
        <mxCell id="n5QaBMFjTIUyxAVZbGBG-179" value="" style="endArrow=none;html=1;rounded=0;fontFamily=Helvetica;fontSize=12;fontColor=default;exitX=0.75;exitY=0.1;exitDx=0;exitDy=0;exitPerimeter=0;entryX=0;entryY=0.5;entryDx=0;entryDy=0;" edge="1" parent="1" source="n5QaBMFjTIUyxAVZbGBG-9" target="n5QaBMFjTIUyxAVZbGBG-52">
          <mxGeometry width="50" height="50" relative="1" as="geometry">
            <mxPoint x="8" y="747" as="sourcePoint" />
            <mxPoint x="352" y="1209" as="targetPoint" />
          </mxGeometry>
        </mxCell>
        <mxCell id="n5QaBMFjTIUyxAVZbGBG-180" value="&lt;font face=&quot;Garamond&quot;&gt;Sent Offers&lt;/font&gt;" style="ellipse;whiteSpace=wrap;html=1;" vertex="1" parent="1">
          <mxGeometry x="352" y="1290" width="205" height="30" as="geometry" />
        </mxCell>
        <mxCell id="n5QaBMFjTIUyxAVZbGBG-181" value="" style="endArrow=none;html=1;rounded=0;fontFamily=Helvetica;fontSize=12;fontColor=default;entryX=0.25;entryY=0.1;entryDx=0;entryDy=0;exitX=1;exitY=0.5;exitDx=0;exitDy=0;entryPerimeter=0;" edge="1" parent="1" source="n5QaBMFjTIUyxAVZbGBG-180" target="n5QaBMFjTIUyxAVZbGBG-3">
          <mxGeometry width="50" height="50" relative="1" as="geometry">
            <mxPoint x="337" y="884" as="sourcePoint" />
            <mxPoint x="898" y="626" as="targetPoint" />
          </mxGeometry>
        </mxCell>
        <mxCell id="n5QaBMFjTIUyxAVZbGBG-182" value="" style="endArrow=none;html=1;rounded=0;fontFamily=Helvetica;fontSize=12;fontColor=default;entryX=0.031;entryY=0.583;entryDx=0;entryDy=0;exitX=0.5;exitY=0;exitDx=0;exitDy=0;exitPerimeter=0;entryPerimeter=0;" edge="1" parent="1" source="n5QaBMFjTIUyxAVZbGBG-5" target="n5QaBMFjTIUyxAVZbGBG-72">
          <mxGeometry width="50" height="50" relative="1" as="geometry">
            <mxPoint x="-189" y="740" as="sourcePoint" />
            <mxPoint x="120" y="905" as="targetPoint" />
          </mxGeometry>
        </mxCell>
        <mxCell id="n5QaBMFjTIUyxAVZbGBG-183" value="" style="endArrow=none;html=1;rounded=0;fontFamily=Helvetica;fontSize=12;fontColor=default;exitX=0.5;exitY=0;exitDx=0;exitDy=0;exitPerimeter=0;" edge="1" parent="1">
          <mxGeometry width="50" height="50" relative="1" as="geometry">
            <mxPoint x="-195" y="740" as="sourcePoint" />
            <mxPoint x="360" y="1400" as="targetPoint" />
          </mxGeometry>
        </mxCell>
        <mxCell id="n5QaBMFjTIUyxAVZbGBG-184" value="" style="endArrow=none;html=1;rounded=0;fontFamily=Helvetica;fontSize=12;fontColor=default;entryX=0;entryY=0.5;entryDx=0;entryDy=0;exitX=0.25;exitY=0.1;exitDx=0;exitDy=0;exitPerimeter=0;" edge="1" parent="1" source="n5QaBMFjTIUyxAVZbGBG-5" target="n5QaBMFjTIUyxAVZbGBG-56">
          <mxGeometry width="50" height="50" relative="1" as="geometry">
            <mxPoint x="-185" y="750" as="sourcePoint" />
            <mxPoint x="368" y="1410" as="targetPoint" />
          </mxGeometry>
        </mxCell>
        <mxCell id="n5QaBMFjTIUyxAVZbGBG-185" value="" style="endArrow=none;html=1;rounded=0;fontFamily=Helvetica;fontSize=12;fontColor=default;entryX=0;entryY=0.5;entryDx=0;entryDy=0;exitX=0.5;exitY=0;exitDx=0;exitDy=0;exitPerimeter=0;" edge="1" parent="1" source="n5QaBMFjTIUyxAVZbGBG-5" target="n5QaBMFjTIUyxAVZbGBG-57">
          <mxGeometry width="50" height="50" relative="1" as="geometry">
            <mxPoint x="-175" y="760" as="sourcePoint" />
            <mxPoint x="367" y="1458" as="targetPoint" />
          </mxGeometry>
        </mxCell>
        <mxCell id="n5QaBMFjTIUyxAVZbGBG-186" value="" style="endArrow=none;html=1;rounded=0;fontFamily=Helvetica;fontSize=12;fontColor=default;entryX=0;entryY=0.5;entryDx=0;entryDy=0;exitX=0.5;exitY=0;exitDx=0;exitDy=0;exitPerimeter=0;" edge="1" parent="1" source="n5QaBMFjTIUyxAVZbGBG-5" target="n5QaBMFjTIUyxAVZbGBG-59">
          <mxGeometry width="50" height="50" relative="1" as="geometry">
            <mxPoint x="-165" y="770" as="sourcePoint" />
            <mxPoint x="375" y="1522" as="targetPoint" />
          </mxGeometry>
        </mxCell>
        <mxCell id="n5QaBMFjTIUyxAVZbGBG-187" value="" style="endArrow=none;html=1;rounded=0;fontFamily=Helvetica;fontSize=12;fontColor=default;entryX=0;entryY=0.5;entryDx=0;entryDy=0;exitX=0.5;exitY=0;exitDx=0;exitDy=0;exitPerimeter=0;" edge="1" parent="1" source="n5QaBMFjTIUyxAVZbGBG-5" target="n5QaBMFjTIUyxAVZbGBG-61">
          <mxGeometry width="50" height="50" relative="1" as="geometry">
            <mxPoint x="-155" y="780" as="sourcePoint" />
            <mxPoint x="375" y="1568" as="targetPoint" />
          </mxGeometry>
        </mxCell>
        <mxCell id="n5QaBMFjTIUyxAVZbGBG-188" value="" style="endArrow=none;html=1;rounded=0;fontFamily=Helvetica;fontSize=12;fontColor=default;entryX=0;entryY=0.5;entryDx=0;entryDy=0;exitX=0.5;exitY=0;exitDx=0;exitDy=0;exitPerimeter=0;" edge="1" parent="1" source="n5QaBMFjTIUyxAVZbGBG-5" target="n5QaBMFjTIUyxAVZbGBG-64">
          <mxGeometry width="50" height="50" relative="1" as="geometry">
            <mxPoint x="-145" y="790" as="sourcePoint" />
            <mxPoint x="375" y="1618" as="targetPoint" />
          </mxGeometry>
        </mxCell>
        <mxCell id="n5QaBMFjTIUyxAVZbGBG-189" value="" style="endArrow=none;html=1;rounded=0;fontFamily=Helvetica;fontSize=12;fontColor=default;entryX=0;entryY=0.5;entryDx=0;entryDy=0;exitX=0.5;exitY=0;exitDx=0;exitDy=0;exitPerimeter=0;" edge="1" parent="1" source="n5QaBMFjTIUyxAVZbGBG-5" target="n5QaBMFjTIUyxAVZbGBG-65">
          <mxGeometry width="50" height="50" relative="1" as="geometry">
            <mxPoint x="-135" y="800" as="sourcePoint" />
            <mxPoint x="385" y="1678" as="targetPoint" />
          </mxGeometry>
        </mxCell>
        <mxCell id="n5QaBMFjTIUyxAVZbGBG-190" value="" style="endArrow=none;html=1;rounded=0;fontFamily=Helvetica;fontSize=12;fontColor=default;entryX=0;entryY=0.5;entryDx=0;entryDy=0;exitX=0.5;exitY=0;exitDx=0;exitDy=0;exitPerimeter=0;" edge="1" parent="1" source="n5QaBMFjTIUyxAVZbGBG-5" target="n5QaBMFjTIUyxAVZbGBG-66">
          <mxGeometry width="50" height="50" relative="1" as="geometry">
            <mxPoint x="-125" y="810" as="sourcePoint" />
            <mxPoint x="395" y="1728" as="targetPoint" />
          </mxGeometry>
        </mxCell>
        <mxCell id="n5QaBMFjTIUyxAVZbGBG-191" value="" style="endArrow=none;html=1;rounded=0;fontFamily=Helvetica;fontSize=12;fontColor=default;entryX=0;entryY=0.5;entryDx=0;entryDy=0;exitX=0.5;exitY=0;exitDx=0;exitDy=0;exitPerimeter=0;" edge="1" parent="1" source="n5QaBMFjTIUyxAVZbGBG-5" target="n5QaBMFjTIUyxAVZbGBG-67">
          <mxGeometry width="50" height="50" relative="1" as="geometry">
            <mxPoint x="-115" y="820" as="sourcePoint" />
            <mxPoint x="390" y="1781" as="targetPoint" />
          </mxGeometry>
        </mxCell>
        <mxCell id="n5QaBMFjTIUyxAVZbGBG-192" value="" style="endArrow=none;html=1;rounded=0;fontFamily=Helvetica;fontSize=12;fontColor=default;entryX=0;entryY=0.5;entryDx=0;entryDy=0;exitX=0.75;exitY=0.1;exitDx=0;exitDy=0;exitPerimeter=0;" edge="1" parent="1" source="n5QaBMFjTIUyxAVZbGBG-5" target="n5QaBMFjTIUyxAVZbGBG-68">
          <mxGeometry width="50" height="50" relative="1" as="geometry">
            <mxPoint x="-200" y="730" as="sourcePoint" />
            <mxPoint x="390" y="1828" as="targetPoint" />
          </mxGeometry>
        </mxCell>
        <mxCell id="n5QaBMFjTIUyxAVZbGBG-193" value="" style="endArrow=none;html=1;rounded=0;fontFamily=Helvetica;fontSize=12;fontColor=default;entryX=0;entryY=0.5;entryDx=0;entryDy=0;" edge="1" parent="1" target="n5QaBMFjTIUyxAVZbGBG-69">
          <mxGeometry width="50" height="50" relative="1" as="geometry">
            <mxPoint x="-200" y="730" as="sourcePoint" />
            <mxPoint x="393" y="1878" as="targetPoint" />
          </mxGeometry>
        </mxCell>
        <mxCell id="n5QaBMFjTIUyxAVZbGBG-194" value="" style="endArrow=none;html=1;rounded=0;fontFamily=Helvetica;fontSize=12;fontColor=default;entryX=0;entryY=0.5;entryDx=0;entryDy=0;exitX=0.75;exitY=0.1;exitDx=0;exitDy=0;exitPerimeter=0;" edge="1" parent="1" source="n5QaBMFjTIUyxAVZbGBG-5" target="n5QaBMFjTIUyxAVZbGBG-70">
          <mxGeometry width="50" height="50" relative="1" as="geometry">
            <mxPoint x="-93" y="898" as="sourcePoint" />
            <mxPoint x="385" y="1976" as="targetPoint" />
          </mxGeometry>
        </mxCell>
        <mxCell id="n5QaBMFjTIUyxAVZbGBG-195" value="" style="endArrow=none;html=1;rounded=0;fontFamily=Helvetica;fontSize=12;fontColor=default;entryX=0;entryY=0.5;entryDx=0;entryDy=0;exitX=0.5;exitY=0;exitDx=0;exitDy=0;exitPerimeter=0;" edge="1" parent="1" source="n5QaBMFjTIUyxAVZbGBG-5" target="n5QaBMFjTIUyxAVZbGBG-71">
          <mxGeometry width="50" height="50" relative="1" as="geometry">
            <mxPoint x="-83" y="908" as="sourcePoint" />
            <mxPoint x="395" y="1978" as="targetPoint" />
          </mxGeometry>
        </mxCell>
      </root>
    </mxGraphModel>
  </diagram>
</mxfile>
